# xmcd
#
# Track frame offsets:
#	150
#	16087
#	28455
#	40472
#	49237
#	64730
#	75220
#	81885
#	95285
#	104587
#	117532
#	128870
#
# Disc length: 1899 seconds
#
# Revision: 0
# Processed by: cddbd v1.5.1PL0 Copyright (c) Steve Scherf et al.
# Submitted via: audiograbber 1.81.02
#
DISCID=9c07690c
DTITLE=Tim Thomas und Olaf Franke - Mit Freddy durch die Bibel 1 - Pech für Mos
DTITLE=e (www.gerth.de)
DYEAR=2005
DGENRE=Musical
TTITLE0=Das Buch der Bücher
TTITLE1=Eugen will Geschichten schreiben
TTITLE2=Eine Geschichte in Ägypten
TTITLE3=Sklavenduett
TTITLE4=Die Sklaven dienen unwillig
TTITLE5=Eugen erzählt weiter
TTITLE6=Baby gefunden
TTITLE7=Ein Baby
TTITLE8=Eugen bringt etwas durcheinander
TTITLE9=Herr, erbarme dich
TTITLE10=Das Kind wird gerettet
TTITLE11=Bibelbuch-Song
EXTD=
EXTT0=
EXTT1=
EXTT2=
EXTT3=
EXTT4=
EXTT5=
EXTT6=
EXTT7=
EXTT8=
EXTT9=
EXTT10=
EXTT11=
PLAYORDER=
